<?xml version="1.0" encoding="UTF-8"?>
<!DOCTYPE svg PUBLIC "-//W3C//DTD SVG 1.1//EN" "http://www.w3.org/Graphics/SVG/1.1/DTD/svg11.dtd">
<!-- Creator: CorelDRAW X7 -->
<svg xmlns="http://www.w3.org/2000/svg" xml:space="preserve" width="21.6746mm" height="17.4412mm" version="1.1" style="shape-rendering:geometricPrecision; text-rendering:geometricPrecision; image-rendering:optimizeQuality; fill-rule:evenodd; clip-rule:evenodd"
viewBox="0 0 2167 1744"
 xmlns:xlink="http://www.w3.org/1999/xlink">
 <defs>
  <style type="text/css">
   <![CDATA[
    .fil0 {fill:#AC08C9}
   ]]>
  </style>
 </defs>
 <g id="Layer_x0020_1">
  <metadata id="CorelCorpID_0Corel-Layer"/>
  <path class="fil0" d="M45 -1l2123 0 -436 437 -1687 0c-25,0 -46,-21 -46,-46l0 -346c0,-25 21,-45 46,-45zm0 1310l814 0 -437 436 -377 0c-25,0 -46,-20 -46,-45l0 -346c0,-25 21,-45 46,-45zm1122 0l1001 0 -436 436 -1001 0 436 -436zm-904 -655l1250 0 -436 436 -814 0c-25,0 -45,-20 -45,-45l0 -346c0,-25 20,-45 45,-45z"/>
 </g>
</svg>
