<?xml version="1.0" encoding="UTF-8"?>
<!DOCTYPE svg PUBLIC "-//W3C//DTD SVG 1.1//EN" "http://www.w3.org/Graphics/SVG/1.1/DTD/svg11.dtd">
<!-- Creator: CorelDRAW X7 -->
<svg xmlns="http://www.w3.org/2000/svg" xml:space="preserve" width="8.1278mm" height="8.1278mm" version="1.1" style="shape-rendering:geometricPrecision; text-rendering:geometricPrecision; image-rendering:optimizeQuality; fill-rule:evenodd; clip-rule:evenodd"
viewBox="0 0 813 813"
 xmlns:xlink="http://www.w3.org/1999/xlink">
 <defs>
  <style type="text/css">
   <![CDATA[
    .fil2 {fill:#FEFEFE}
    .fil1 {fill:#8F00A8}
    .fil0 {fill:#AC08C9}
   ]]>
  </style>
 </defs>
 <g id="Layer_x0020_1">
  <metadata id="CorelCorpID_0Corel-Layer"/>
  <g id="_857396704">
   <circle class="fil0" cx="406" cy="406" r="406"/>
   <path class="fil1" d="M811 367c1,13 2,26 2,39 0,225 -182,407 -407,407 -25,0 -49,-3 -73,-7l-178 -198 0 1 1 1 1 0 1 1 1 0 1 0 1 1 1 0 89 0 51 -51 -96 -106 1 0 1 1 0 0 1 1 1 0 1 0 1 1 1 0 83 0 -141 -157 0 0 1 1 1 1 1 0 1 0 1 1 1 0 1 0 397 0 102 -103 150 166z"/>
   <path class="fil2" d="M162 201l499 0 -102 103 -397 0c-6,0 -10,-5 -10,-11l0 -81c0,-6 4,-11 10,-11zm0 308l191 0 -102 103 -89 0c-6,0 -10,-5 -10,-11l0 -81c0,-6 4,-11 10,-11zm264 0l235 0 -102 103 -236 0 103 -103zm-213 -154l294 0 -102 103 -192 0c-5,0 -10,-5 -10,-11l0 -81c0,-6 5,-11 10,-11z"/>
   <path class="fil2" d="M162 201l499 0 -102 103 -397 0c-6,0 -10,-5 -10,-11l0 -81c0,-6 4,-11 10,-11zm0 308l191 0 -102 103 -89 0c-6,0 -10,-5 -10,-11l0 -81c0,-6 4,-11 10,-11zm264 0l235 0 -102 103 -236 0 103 -103zm-213 -154l294 0 -102 103 -192 0c-5,0 -10,-5 -10,-11l0 -81c0,-6 5,-11 10,-11z"/>
  </g>
 </g>
</svg>
