<?xml version="1.0" encoding="UTF-8"?>
<!DOCTYPE svg PUBLIC "-//W3C//DTD SVG 1.1//EN" "http://www.w3.org/Graphics/SVG/1.1/DTD/svg11.dtd">
<!-- Creator: CorelDRAW X7 -->
<svg xmlns="http://www.w3.org/2000/svg" xml:space="preserve" width="86.6986mm" height="23.8758mm" version="1.1" style="shape-rendering:geometricPrecision; text-rendering:geometricPrecision; image-rendering:optimizeQuality; fill-rule:evenodd; clip-rule:evenodd"
viewBox="0 0 8670 2388"
 xmlns:xlink="http://www.w3.org/1999/xlink">
 <defs>
  <style type="text/css">
   <![CDATA[
    .fil0 {fill:#AC08C9}
    .fil1 {fill:#AC08C9;fill-rule:nonzero}
   ]]>
  </style>
 </defs>
 <g id="Layer_x0020_1">
  <metadata id="CorelCorpID_0Corel-Layer"/>
  <g id="_863592592">
   <g>
    <path class="fil0" d="M61 -2l2909 0 -598 598 -2311 0c-34,0 -62,-28 -62,-62l0 -474c0,-34 28,-62 62,-62z"/>
    <path class="fil0" d="M61 1792l1115 0 -598 598 -517 0c-34,0 -62,-28 -62,-62l0 -474c0,-34 28,-62 62,-62zm1538 0l1371 0 -598 598 -1371 0 598 -598z"/>
    <path class="fil0" d="M360 895l1713 0 -598 598 -1115 0c-34,0 -62,-28 -62,-62l0 -474c0,-34 28,-62 62,-62z"/>
   </g>
   <polygon class="fil1" points="4134,1807 4134,580 4818,580 4818,750 4333,750 4333,1057 4818,1057 4818,1232 4333,1232 4333,1629 4818,1629 4818,1807 "/>
   <polygon class="fil1" points="5642,1807 4905,1807 5347,1172 4949,1172 4949,1013 5642,1013 5209,1648 5642,1648 "/>
   <path class="fil1" d="M6016 1093l52 0c110,0 184,-12 221,-36 37,-24 55,-66 55,-127 0,-65 -20,-111 -59,-138 -39,-27 -112,-40 -217,-40l-52 0 0 341zm-12 163l0 551 -187 0 0 -1227 302 0c89,0 155,5 197,15 42,10 79,26 111,48 38,29 68,67 90,115 22,49 33,102 33,160 0,58 -11,112 -33,161 -22,49 -52,88 -90,115 -32,23 -69,39 -111,48 -42,10 -108,14 -197,14l-39 0 -76 0z"/>
   <polygon class="fil1" points="6730,1807 6730,580 6929,580 6929,1033 7533,1033 7533,580 7732,580 7732,1807 7533,1807 7533,1212 6929,1212 6929,1807 "/>
   <path class="fil1" d="M8137 1093l51 0c111,0 185,-12 222,-36 36,-24 55,-66 55,-127 0,-65 -20,-111 -59,-138 -40,-27 -112,-40 -218,-40l-51 0 0 341zm-12 163l0 551 -187 0 0 -1227 301 0c90,0 156,5 198,15 42,10 79,26 110,48 39,29 69,67 91,115 22,49 33,102 33,160 0,58 -11,112 -33,161 -22,49 -52,88 -91,115 -31,23 -68,39 -110,48 -42,10 -108,14 -198,14l-39 0 -75 0z"/>
  </g>
 </g>
</svg>
