<?xml version="1.0" encoding="UTF-8"?>
<!DOCTYPE svg PUBLIC "-//W3C//DTD SVG 1.1//EN" "http://www.w3.org/Graphics/SVG/1.1/DTD/svg11.dtd">
<!-- Creator: CorelDRAW X7 -->
<svg xmlns="http://www.w3.org/2000/svg" xml:space="preserve" width="21.6746mm" height="21.6746mm" version="1.1" style="shape-rendering:geometricPrecision; text-rendering:geometricPrecision; image-rendering:optimizeQuality; fill-rule:evenodd; clip-rule:evenodd"
viewBox="0 0 2167 2167"
 xmlns:xlink="http://www.w3.org/1999/xlink">
 <defs>
  <style type="text/css">
   <![CDATA[
    .fil2 {fill:#FEFEFE}
    .fil1 {fill:#8F00A8}
    .fil0 {fill:#AC08C9}
   ]]>
  </style>
 </defs>
 <g id="Layer_x0020_1">
  <metadata id="CorelCorpID_0Corel-Layer"/>
  <g id="_870193312">
   <circle class="fil0" cx="1084" cy="1084" r="1084"/>
   <path class="fil1" d="M2162 980c4,34 5,69 5,104 0,598 -485,1083 -1083,1083 -67,0 -133,-6 -197,-17l-475 -527 2 1 3 2 2 1 2 2 3 1 3 0 3 1 2 0 237 0 135 -135 -255 -284 2 2 2 2 3 1 2 1 3 1 3 1 2 0 3 1 220 0 -377 -419 2 2 3 1 2 2 2 1 3 1 3 1 3 0 2 0 1058 0 273 -273 399 443z"/>
   <path class="fil2" d="M432 537l1331 0 -273 273 -1058 0c-15,0 -28,-13 -28,-28l0 -217c0,-16 13,-28 28,-28zm0 820l511 0 -274 274 -237 0c-15,0 -28,-13 -28,-28l0 -217c0,-16 13,-29 28,-29zm704 0l627 0 -273 274 -628 0 274 -274zm-567 -410l784 0 -274 274 -510 0c-15,0 -28,-13 -28,-29l0 -217c0,-15 13,-28 28,-28z"/>
   <path class="fil2" d="M432 537l1331 0 -273 273 -1058 0c-15,0 -28,-13 -28,-28l0 -217c0,-16 13,-28 28,-28zm0 820l511 0 -274 274 -237 0c-15,0 -28,-13 -28,-28l0 -217c0,-16 13,-29 28,-29zm704 0l627 0 -273 274 -628 0 274 -274zm-567 -410l784 0 -274 274 -510 0c-15,0 -28,-13 -28,-29l0 -217c0,-15 13,-28 28,-28z"/>
  </g>
 </g>
</svg>
