<?xml version="1.0" encoding="UTF-8"?>
<!DOCTYPE svg PUBLIC "-//W3C//DTD SVG 1.1//EN" "http://www.w3.org/Graphics/SVG/1.1/DTD/svg11.dtd">
<!-- Creator: CorelDRAW X7 -->
<svg xmlns="http://www.w3.org/2000/svg" xml:space="preserve" width="43.3492mm" height="43.3492mm" version="1.1" style="shape-rendering:geometricPrecision; text-rendering:geometricPrecision; image-rendering:optimizeQuality; fill-rule:evenodd; clip-rule:evenodd"
viewBox="0 0 4335 4335"
 xmlns:xlink="http://www.w3.org/1999/xlink">
 <defs>
  <style type="text/css">
   <![CDATA[
    .fil1 {fill:#FEFEFE}
    .fil0 {fill:#332C2B}
   ]]>
  </style>
 </defs>
 <g id="Layer_x0020_1">
  <metadata id="CorelCorpID_0Corel-Layer"/>
  <circle class="fil0" cx="2167" cy="2167" r="2167"/>
  <path class="fil1" d="M865 1073l2662 0 -547 547 -2115 0c-31,0 -57,-25 -57,-56l0 -434c0,-31 26,-57 57,-57zm0 1642l1020 0 -547 547 -473 0c-31,0 -57,-26 -57,-57l0 -434c0,-31 26,-56 57,-56zm1407 0l1255 0 -547 547 -1255 0 547 -547zm-1134 -821l1568 0 -547 547 -1021 0c-31,0 -56,-25 -56,-57l0 -433c0,-32 25,-57 56,-57z"/>
  <path class="fil1" d="M865 1073l2662 0 -547 547 -2115 0c-31,0 -57,-25 -57,-56l0 -434c0,-31 26,-57 57,-57zm0 1642l1020 0 -547 547 -473 0c-31,0 -57,-26 -57,-57l0 -434c0,-31 26,-56 57,-56zm1407 0l1255 0 -547 547 -1255 0 547 -547zm-1134 -821l1568 0 -547 547 -1021 0c-31,0 -56,-25 -56,-57l0 -433c0,-32 25,-57 56,-57z"/>
 </g>
</svg>
