<?xml version="1.0" encoding="UTF-8"?>
<!DOCTYPE svg PUBLIC "-//W3C//DTD SVG 1.1//EN" "http://www.w3.org/Graphics/SVG/1.1/DTD/svg11.dtd">
<!-- Creator: CorelDRAW X7 -->
<svg xmlns="http://www.w3.org/2000/svg" xml:space="preserve" width="43.3492mm" height="34.8826mm" version="1.1" style="shape-rendering:geometricPrecision; text-rendering:geometricPrecision; image-rendering:optimizeQuality; fill-rule:evenodd; clip-rule:evenodd"
viewBox="0 0 4335 3488"
 xmlns:xlink="http://www.w3.org/1999/xlink">
 <defs>
  <style type="text/css">
   <![CDATA[
    .fil0 {fill:#332C2B}
   ]]>
  </style>
 </defs>
 <g id="Layer_x0020_1">
  <metadata id="CorelCorpID_0Corel-Layer"/>
  <path class="fil0" d="M90 -1l4245 0 -873 873 -3372 0c-49,0 -90,-41 -90,-91l0 -691c0,-50 41,-91 90,-91zm0 2618l1627 0 -872 872 -755 0c-49,0 -90,-41 -90,-90l0 -692c0,-50 41,-90 90,-90zm2244 0l2001 0 -873 872 -2000 0 872 -872zm-1807 -1309l2499 0 -872 872 -1627 0c-50,0 -91,-40 -91,-90l0 -692c0,-49 41,-90 91,-90z"/>
 </g>
</svg>
